{"title":"Neerja (2016) 1CD - Desi-SCR - Rip - Hindi - x264 - MP3 - Downlo","uid":13625380,"size":731434169,"categoryP":"video","categoryS":"movies","magnet":"?xt=urn:btih:5bb27612c49b8f16b15f5870b3c00d841121d32d&amp;dn=Neerja+%282016%29+1CD+-+Desi-SCR+-+Rip+-+Hindi+-+x264+-+MP3+-+Downlo&amp;tr=udp%3A%2F%2Ftracker.leechers-paradise.org%3A6969&amp;tr=udp%3A%2F%2Fzer0day.ch%3A1337&amp;tr=udp%3A%2F%2Fopen.demonii.com%3A1337&amp;tr=udp%3A%2F%2Ftracker.coppersurfer.tk%3A6969&amp;tr=udp%3A%2F%2Fexodus.desync.com%3A6969","seeders":0,"leechers":0,"uploader":"dhencode","files":1,"time":1456008752,"description":"[center][img]http://cdn.bollywoodmdb.com/movies/largethumb/2016/neerja/poster.jpg[/img]\r\n\r\n[center][b]Format                                   : MPEG-4 Visual\r\nFormat profile                           : Advanced   \r\nFormat settings, BVOP                    : 2\r\nFormat settings, QPel                    : Yes\r\nFormat settings, GMC                     : No warppoints\r\nFormat settings, Matrix                  : Default (H.263)\r\nCodec ID                                 : V_MS/VFW/FOURCC / XVID\r\nCodec ID/Hint                            : XviD\r\nDuration                                 : 1h 52mn\r\nBit rate                                 : 805 Kbps\r\nWidth                                    : 640 pixels\r\nHeight                                   : 288 pixels\r\nDisplay aspect ratio                     : 2.222\r\nFrame rate mode                          : Constant\r\nFrame rate                               : 23.976 (24000/1001) fps\r\nColor space                              : YUV\r\nChroma subsampling                       : 4:2:0\r\nBit depth                                : 8 bits\r\nScan type                                : Progressive\r\nCompression mode                         : Lossy\r\nBits/(Pixel*Frame)                       : 0.182\r\nStream size                              : 645 MiB (92%)\r\nTitle                                    : Neerja (2016) 1CD - Desi-SCR - Rip - Hindi - x264 - MP3 - Downloadhub\r\nWriting library                          : XviD 1.2.1 (UTC 2008-12-04)\r\nDefault                                  : Yes\r\nForced                                   : No\r\n\r\nAudio\r\nID                                       : 2\r\nFormat                                   : MPEG Audio\r\nFormat version                           : Version 2\r\nFormat profile                           : Layer 3\r\nMode                                     : Joint stereo\r\nMode extension                           : MS Stereo\r\nCodec ID                                 : A_MPEG/L3\r\nCodec ID/Hint                            : MP3\r\nDuration                                 : 1h 52mn\r\nBit rate mode                            : Constant\r\nBit rate                                 : 64.0 Kbps\r\nChannel(s)                               : 2 channels\r\nSampling rate                            : 24.0 KHz\r\nFrame rate                               : 41.667 fps (576 spf)\r\nCompression mode                         : Lossy\r\nStream size                              : 51.3 MiB (7%)\r\nTitle                                    : Neerja (2016) 1CD - Desi-SCR - Rip - Hindi - x264 - MP3 - Downloadhub\r\nWriting library                          : LAME3.99r\r\nEncoding settings                        : -m j -V 4 -q 2 -lowpass 11 -b 64\r\nDefault                                  : Yes\r\nForced                                   : No[/b][/center]\r\n\r\n[url=http://extraimago.com/image/a8WR][img]http://extraimago.com/images/2016/02/20/Neerja20161CD-Desi-SCR-Rip-Hindi-x264-MP3-Downloadhub.mkv.jpg[/img][/url]\r\n\r\n[center][img]http://i.imgur.com/Cyel4yU.png[/img][/center]","torrent":{"xt":"urn:btih:5bb27612c49b8f16b15f5870b3c00d841121d32d","amp;dn":"Neerja+%282016%29+1CD+-+Desi-SCR+-+Rip+-+Hindi+-+x264+-+MP3+-+Downlo","amp;tr":["udp%3A%2F%2Ftracker.leechers-paradise.org%3A6969","udp%3A%2F%2Fzer0day.ch%3A1337","udp%3A%2F%2Fopen.demonii.com%3A1337","udp%3A%2F%2Ftracker.coppersurfer.tk%3A6969","udp%3A%2F%2Fexodus.desync.com%3A6969"],"infoHash":"5bb27612c49b8f16b15f5870b3c00d841121d32d","infoHashBuffer":{"type":"Buffer","data":[91,178,118,18,196,155,143,22,177,95,88,112,179,192,13,132,17,33,211,45]},"announce":[],"urlList":[]}}